<svg xmlns="http://www.w3.org/2000/svg" xmlns:xlink="http://www.w3.org/1999/xlink" viewBox="0 0 802.58 564.73"><defs><style>.cls-1,.cls-2,.cls-3{fill:#cbcbcb;}.cls-1{clip-rule:evenodd;}.cls-17,.cls-3{fill-rule:evenodd;}.cls-4{clip-path:url(#clip-path);}.cls-5{clip-path:url(#clip-path-2);}.cls-6{clip-path:url(#clip-path-3);}.cls-7{clip-path:url(#clip-path-4);}.cls-8{clip-path:url(#clip-path-5);}.cls-9{clip-path:url(#clip-path-6);}.cls-10{clip-path:url(#clip-path-7);}.cls-11{clip-path:url(#clip-path-8);}.cls-12,.cls-13,.cls-14,.cls-15,.cls-16,.cls-25{fill:none;stroke-miterlimit:10;}.cls-12,.cls-13,.cls-14,.cls-15,.cls-16{stroke-width:1.64px;}.cls-12{stroke:url(#linear-gradient);}.cls-13{stroke:url(#linear-gradient-2);}.cls-14{stroke:url(#linear-gradient-3);}.cls-15{stroke:url(#linear-gradient-4);}.cls-16{stroke:url(#linear-gradient-5);}.cls-17{fill:url(#linear-gradient-6);}.cls-18{fill:url(#linear-gradient-7);}.cls-19{fill:url(#linear-gradient-8);}.cls-20{fill:url(#linear-gradient-9);}.cls-21{fill:url(#linear-gradient-10);}.cls-22{fill:url(#linear-gradient-11);}.cls-23{fill:url(#linear-gradient-12);}.cls-24{fill:url(#linear-gradient-13);}.cls-25{stroke-width:14.73px;stroke:url(#linear-gradient-14);}</style><clipPath id="clip-path"><path class="cls-1" d="M135.81,278.75c.1,0,.11,0,.13.11,10.85,17.5,18.22,49.41,14.44,74-1.84,11.88-5.8,21.78-12.25,29.93S122.59,396.56,115,404c2.46,10.16,4.87,20.34,7.2,30.65A29.2,29.2,0,0,1,148,441.76a42.54,42.54,0,0,1,13.38,22.92,36.12,36.12,0,0,1-4.69,27.73c-4.57,7.34-10.94,12.4-18.85,16.66,3.68,19.31,4.55,38.71-6.27,48.07-5.37,4.64-14.81,7.56-23.65,7.58-8.51,0-16-2.6-20.94-7.52-5.34-5.41-6.26-16.37-3.09-23.21,2.76-5.93,9.72-12.08,19.07-9.69,6.28,1.61,13.64,7.69,12.95,17.13-.58,7.6-5.28,14.48-14.31,15.36,3,3.61,11.16,3.23,16.49,1.32a22.69,22.69,0,0,0,14.77-16.62c1.77-8.17-.69-18.94-1.85-29.12a60.56,60.56,0,0,1-28.44,3.43A61,61,0,0,1,80,507.66c-13-7.77-23.44-19.78-25.62-41.25s4.67-34.76,15.68-45.84c10.77-10.81,22.74-20.75,33.82-31.33-7.32-38.29-2-69.07,12.92-91A83.71,83.71,0,0,1,135.81,278.75ZM110,383.48a25,25,0,0,0,4.23-3.86c9.85-9.6,19.28-20.21,25-33a55.08,55.08,0,0,0,4.87-26.15c-.68-10.86-4.09-19.66-8.05-27.68,0-.06,0-.12-.13-.08C116.13,313.14,101.39,342.35,110,383.48Zm-4.37,88.11c-1.48,9.43,2.61,19.28,6.89,23.84A48.19,48.19,0,0,1,101,482.71a35.44,35.44,0,0,1-5.37-19.19c.35-13.58,8.78-20.83,19.61-26.46-2.18-9.19-4.47-18.21-6.69-27.37C99.73,417.38,91,425.3,83.23,434.43a79,79,0,0,0-10.09,14.51c-2.72,5.25-5.46,11.38-4.5,19.07.46,3.66,1,8.72,2.3,12.18a46,46,0,0,0,17.47,22.27,33.66,33.66,0,0,0,18.64,6.1c8.06.14,15.88-2.45,22.44-5.38-2.92-16.78-6.44-32.8-10.13-48.57C111.16,457,106.88,463.64,105.61,471.59Zm42.58,1.28c-2.5-11.44-11-17.62-21.57-18.89,3,14.76,6.37,30.29,9.41,45.43C144.21,493.79,151,485.59,148.19,472.87Z"/></clipPath><clipPath id="clip-path-2"><path class="cls-2" d="M247.77,485.13c0,3.92-7.42,22.68-29.53,22.68V423.4h3.92L222,480.65s6.3-7.42,15-7.42S247.77,481.21,247.77,485.13Zm-9.44-2.08c-2.93-2.92-9.15-5.4-16.56,5v15.18s3.62,1.55,11.23-3.2S241.26,486,238.33,483.05Z"/></clipPath><clipPath id="clip-path-3"><path class="cls-2" d="M598.69,223.65l-1.91.11L599,262c-2.54-1.62-6.6-.55-9.45,2.62-3.07,3.42-3.57,8-1.1,10.21s7,1.24,10-2.19a9.59,9.59,0,0,0,2.66-6.72h0l-1.88-32.18c22.24-2.41,10.65,23.47,10.65,23.47C628.78,227.31,598.69,223.65,598.69,223.65Z"/></clipPath><clipPath id="clip-path-4"><path class="cls-2" d="M337.3,370.49l-2.8-.56L323.2,426.24c-3.07-3.31-9.36-3.3-14.69.21-5.75,3.79-8.2,10.23-5.47,14.37s9.61,4.43,15.37.64a14.38,14.38,0,0,0,6.4-8.73h0l9.49-47.35c33.14,4.95,6.52,38.06,6.52,38.06C379.51,387.22,337.3,370.49,337.3,370.49Z"/></clipPath><clipPath id="clip-path-5"><path class="cls-2" d="M552.92,424.74l2,11.36,6.43,37.11c-3.13-1.52-7.65.23-10.5,4.24-3.08,4.33-3.05,9.63.07,11.85s8.14.51,11.23-3.81a11.09,11.09,0,0,0,2.17-8.05h0l-7.23-41.71,40.57-7,6.43,37.11c-3.13-1.52-7.65.23-10.5,4.24-3.08,4.33-3.05,9.63.07,11.85s8.14.51,11.22-3.81A11.08,11.08,0,0,0,607,470h0l-7.23-41.71-2-11.36Z"/></clipPath><clipPath id="clip-path-6"><path class="cls-2" d="M680,411.67l-2.12,7.19L671,442.33c-1.39-1.79-4.52-2.07-7.34-.55-3,1.63-4.55,4.73-3.37,6.92s4.6,2.64,7.64,1a7.22,7.22,0,0,0,3.58-4.07h0l7.79-26.38,25.65,7.58L698,450.31c-1.38-1.79-4.52-2.07-7.33-.55-3,1.63-4.55,4.73-3.37,6.93s4.59,2.64,7.63,1a7.2,7.2,0,0,0,3.58-4.07h0l7.79-26.38,2.12-7.19Z"/></clipPath><clipPath id="clip-path-7"><path class="cls-2" d="M601.52,38.71l3.8,9.36,12.42,30.57c-3-.72-6.5,1.62-8.2,5.58-1.83,4.28-.82,8.81,2.27,10.14s7.06-1.08,8.9-5.36a9.72,9.72,0,0,0,.35-7.3h0l-14-34.36L636,35.62,648.4,66.18c-3-.72-6.5,1.63-8.2,5.59-1.83,4.28-.82,8.81,2.27,10.14s7.06-1.08,8.89-5.36a9.71,9.71,0,0,0,.36-7.3h0l-14-34.36,28.86-11.73L679,53.73c-3-.72-6.5,1.63-8.2,5.58-1.83,4.28-.82,8.81,2.27,10.14s7.07-1.08,8.9-5.36a9.71,9.71,0,0,0,.36-7.29h0l-14-34.36-3.8-9.36Z"/></clipPath><clipPath id="clip-path-8"><path class="cls-2" d="M421.84,500.09l-2,9.06-6.42,29.61c-1.87-2.08-5.77-2.14-9.11,0-3.6,2.29-5.19,6.26-3.53,8.86s5.92,2.84,9.52.55a8.93,8.93,0,0,0,4-5.35h0l7.22-33.28,28,6.07-6.42,29.61c-1.87-2.08-5.77-2.13-9.11,0-3.61,2.3-5.19,6.26-3.53,8.86s5.92,2.84,9.52.55a8.92,8.92,0,0,0,4.05-5.35h0L451.29,516l28,6.07-6.42,29.61c-1.87-2.08-5.77-2.13-9.11,0-3.61,2.29-5.19,6.26-3.53,8.86s5.92,2.84,9.52.55a8.92,8.92,0,0,0,4-5.34h0L481,522.42l2-9.06Z"/></clipPath><linearGradient id="linear-gradient" y1="216.94" x2="802.58" y2="216.94" gradientUnits="userSpaceOnUse"><stop offset="0"/><stop offset="1" stop-color="#3b3b3b"/></linearGradient><linearGradient id="linear-gradient-2" x1="0" y1="240.84" x2="802.58" y2="240.84" xlink:href="#linear-gradient"/><linearGradient id="linear-gradient-3" x1="0.03" y1="265.21" x2="802.58" y2="265.21" xlink:href="#linear-gradient"/><linearGradient id="linear-gradient-4" x1="0.03" y1="288.9" x2="802.58" y2="288.9" xlink:href="#linear-gradient"/><linearGradient id="linear-gradient-5" x1="0.04" y1="316.13" x2="802.58" y2="316.13" xlink:href="#linear-gradient"/><linearGradient id="linear-gradient-6" x1="54.01" y1="408.66" x2="162.38" y2="408.66" xlink:href="#linear-gradient"/><linearGradient id="linear-gradient-7" x1="218.24" y1="452.53" x2="247.77" y2="452.53" xlink:href="#linear-gradient"/><linearGradient id="linear-gradient-8" x1="596.83" y1="434.55" x2="633.7" y2="434.55" gradientTransform="matrix(0.97, -0.25, 0.25, 0.97, -105.44, -28.89)" xlink:href="#linear-gradient"/><linearGradient id="linear-gradient-9" x1="301.92" y1="393.95" x2="357.15" y2="393.95" xlink:href="#linear-gradient"/><linearGradient id="linear-gradient-10" x1="548.53" y1="440.54" x2="607.13" y2="440.54" xlink:href="#linear-gradient"/><linearGradient id="linear-gradient-11" x1="553.33" y1="90.54" x2="591.41" y2="90.54" gradientTransform="matrix(0.9, 0.44, -0.44, 0.9, 213.15, 87.91)" xlink:href="#linear-gradient"/><linearGradient id="linear-gradient-12" x1="588.79" y1="506.13" x2="678.96" y2="506.13" gradientTransform="translate(-170.47 -18.42) rotate(-34.36)" xlink:href="#linear-gradient"/><linearGradient id="linear-gradient-13" x1="400.15" y1="518.28" x2="482.95" y2="518.28" xlink:href="#linear-gradient"/><linearGradient id="linear-gradient-14" x1="17.96" y1="409.32" x2="43.85" y2="409.32" xlink:href="#linear-gradient"/></defs><title>musicsheet</title><g id="Capa_2" data-name="Capa 2"><g id="Objects"><path class="cls-2" d="M459.36,441.8c-40.49,0-92.37-6.37-151.74-28-101.71-37.13-179.84-45.35-227.47-45.71C28.6,367.64.77,376.14.49,376.23L0,374.66c.28-.09,28.34-8.64,80.16-8.25,47.76.36,126.09,8.59,228,45.81C391.49,442.64,460,442.81,502.8,437.6c53.77-6.55,97-25.21,118.63-51.19,16.43-19.74,18.48-41.42,5.94-62.69-13.62-23.1-30.79-48.35-47.39-72.77-43.55-64.07-84.69-124.58-72.6-156.33C524.17,50.5,637.2-8.34,802.58,31.43L802.2,33C637.75-6.53,525.52,51.57,508.9,95.2c-11.79,31,31,93.92,72.42,154.82,16.62,24.44,33.8,49.71,47.45,72.86,12.74,21.61,10.58,44.54-6.09,64.57-21.89,26.3-65.51,45.17-119.69,51.77A361.7,361.7,0,0,1,459.36,441.8Z"/><path class="cls-2" d="M474,466.45c-40.49,0-92.37-6.37-151.74-28-101.7-37.13-183.8-43.88-234.75-43-55.17.94-86.67,10.77-87,10.87L0,404.7c.31-.1,32-10,87.45-10.95,51.1-.87,133.41,5.9,235.34,43.11,83.31,30.41,151.82,30.59,194.62,25.38,53.77-6.55,97-25.21,118.63-51.19,16.43-19.74,18.48-41.42,5.94-62.69-13.62-23.1-30.79-48.35-47.39-72.77C551,211.53,509.89,151,522,119.27c7.58-19.91,33.84-47.17,84.79-64,38.41-12.68,103.56-23.13,195.8-.94l-.38,1.59c-91.87-22.09-156.7-11.7-194.91.91-50.41,16.63-76.33,43.46-83.78,63-11.79,31,31,93.93,72.43,154.83,16.61,24.44,33.79,49.71,47.45,72.86,12.74,21.61,10.58,44.54-6.09,64.57-21.89,26.3-65.51,45.17-119.69,51.77A361.69,361.69,0,0,1,474,466.45Z"/><path class="cls-2" d="M490.66,492.53c-40.48,0-92.37-6.37-151.74-28-101.67-37.12-188.27-44.15-243-43.55C36.56,421.6.82,431.17.46,431.27L0,429.69c.36-.1,36.25-9.72,95.77-10.4,54.91-.63,141.75,6.43,243.68,43.65,83.31,30.42,151.82,30.59,194.61,25.38,53.77-6.55,97-25.21,118.63-51.19,16.43-19.74,18.48-41.42,5.94-62.69-13.62-23.1-30.79-48.35-47.39-72.77-43.55-64.06-84.69-124.58-72.6-156.33,10.21-26.8,38.78-51.45,76.41-65.92,50.24-19.32,115.07-20.33,187.5-2.91l-.38,1.59c-91.09-21.91-151.71-10.54-186.53,2.85-55.14,21.21-71.71,55.1-75.47,65-11.79,31,31,93.92,72.42,154.82,16.62,24.44,33.8,49.71,47.45,72.86,12.74,21.61,10.58,44.54-6.09,64.57-21.89,26.3-65.51,45.17-119.69,51.77A361.65,361.65,0,0,1,490.66,492.53Z"/><path class="cls-2" d="M506.65,516.44c-40.48,0-92.37-6.37-151.74-28-101.67-37.12-192.62-42.57-251-40.62C40.61,449.89.86,460.93.47,461L0,459.47c.4-.11,40.29-11.2,103.75-13.33,58.56-2,149.75,3.5,251.7,40.72,83.31,30.42,151.82,30.59,194.62,25.38,53.77-6.55,97-25.21,118.63-51.19,16.43-19.74,18.48-41.42,5.94-62.69C661,375.25,643.87,350,627.27,325.59c-43.56-64.07-84.7-124.58-72.6-156.33C559.72,156,576.5,123,623.05,103.08,669.11,83.4,729.52,82.33,802.58,99.9l-.38,1.59C729.48,84,669.43,85,623.7,104.59c-46,19.65-62.52,52.18-67.5,65.25-11.79,31,31,93.93,72.43,154.83,16.62,24.44,33.79,49.71,47.45,72.86,12.74,21.61,10.58,44.54-6.09,64.57-21.89,26.3-65.51,45.17-119.69,51.77A361.66,361.66,0,0,1,506.65,516.44Z"/><path class="cls-2" d="M523.14,546c-40.48,0-92.37-6.37-151.74-28-101.67-37.12-197.1-42.13-259.27-39.79C44.77,480.67.89,492.13.46,492.24L0,490.66c.44-.12,44.45-11.62,112-14.16,62.31-2.35,158,2.67,259.94,39.88C455.27,546.8,523.78,547,566.57,541.76c53.77-6.55,97-25.21,118.63-51.19,16.43-19.74,18.48-41.42,5.94-62.69-13.62-23.1-30.79-48.35-47.39-72.77-43.55-64.07-84.69-124.58-72.6-156.33,20.73-54.42,77.71-111.52,231.43-74.55l-.38,1.59c-152.57-36.7-209,19.74-229.52,73.54-11.79,31,31,93.92,72.42,154.82,16.62,24.44,33.8,49.71,47.45,72.86,12.74,21.61,10.58,44.54-6.09,64.57-21.89,26.3-65.51,45.17-119.69,51.77A361.46,361.46,0,0,1,523.14,546Z"/><path class="cls-3" d="M135.81,278.75c.1,0,.11,0,.13.11,10.85,17.5,18.22,49.41,14.44,74-1.84,11.88-5.8,21.78-12.25,29.93S122.59,396.56,115,404c2.46,10.16,4.87,20.34,7.2,30.65A29.2,29.2,0,0,1,148,441.76a42.54,42.54,0,0,1,13.38,22.92,36.12,36.12,0,0,1-4.69,27.73c-4.57,7.34-10.94,12.4-18.85,16.66,3.68,19.31,4.55,38.71-6.27,48.07-5.37,4.64-14.81,7.56-23.65,7.58-8.51,0-16-2.6-20.94-7.52-5.34-5.41-6.26-16.37-3.09-23.21,2.76-5.93,9.72-12.08,19.07-9.69,6.28,1.61,13.64,7.69,12.95,17.13-.58,7.6-5.28,14.48-14.31,15.36,3,3.61,11.16,3.23,16.49,1.32a22.69,22.69,0,0,0,14.77-16.62c1.77-8.17-.69-18.94-1.85-29.12a60.56,60.56,0,0,1-28.44,3.43A61,61,0,0,1,80,507.66c-13-7.77-23.44-19.78-25.62-41.25s4.67-34.76,15.68-45.84c10.77-10.81,22.74-20.75,33.82-31.33-7.32-38.29-2-69.07,12.92-91A83.71,83.71,0,0,1,135.81,278.75ZM110,383.48a25,25,0,0,0,4.23-3.86c9.85-9.6,19.28-20.21,25-33a55.08,55.08,0,0,0,4.87-26.15c-.68-10.86-4.09-19.66-8.05-27.68,0-.06,0-.12-.13-.08C116.13,313.14,101.39,342.35,110,383.48Zm-4.37,88.11c-1.48,9.43,2.61,19.28,6.89,23.84A48.19,48.19,0,0,1,101,482.71a35.44,35.44,0,0,1-5.37-19.19c.35-13.58,8.78-20.83,19.61-26.46-2.18-9.19-4.47-18.21-6.69-27.37C99.73,417.38,91,425.3,83.23,434.43a79,79,0,0,0-10.09,14.51c-2.72,5.25-5.46,11.38-4.5,19.07.46,3.66,1,8.72,2.3,12.18a46,46,0,0,0,17.47,22.27,33.66,33.66,0,0,0,18.64,6.1c8.06.14,15.88-2.45,22.44-5.38-2.92-16.78-6.44-32.8-10.13-48.57C111.16,457,106.88,463.64,105.61,471.59Zm42.58,1.28c-2.5-11.44-11-17.62-21.57-18.89,3,14.76,6.37,30.29,9.41,45.43C144.21,493.79,151,485.59,148.19,472.87Z"/><g class="cls-4"><rect class="cls-2" x="126.62" y="453.98" width="0.18" height="45.43"/><rect class="cls-2" x="126.79" y="453.98" width="1.62" height="45.43"/><rect class="cls-2" x="128.41" y="453.98" width="1.62" height="45.43"/><rect class="cls-2" x="130.03" y="453.98" width="1.62" height="45.43"/><rect class="cls-2" x="131.65" y="453.98" width="1.62" height="45.43"/><rect class="cls-2" x="133.27" y="453.98" width="1.62" height="45.43"/><rect class="cls-2" x="134.88" y="453.98" width="1.62" height="45.43"/><rect class="cls-2" x="136.5" y="453.98" width="1.62" height="45.43"/><rect class="cls-2" x="138.12" y="453.98" width="1.62" height="45.43"/><rect class="cls-2" x="139.74" y="453.98" width="1.62" height="45.43"/><rect class="cls-2" x="141.35" y="453.98" width="1.62" height="45.43"/><rect class="cls-2" x="142.97" y="453.98" width="1.62" height="45.43"/><rect class="cls-2" x="144.59" y="453.98" width="1.62" height="45.43"/><rect class="cls-2" x="146.21" y="453.98" width="1.62" height="45.43"/><rect class="cls-2" x="147.82" y="453.98" width="1.62" height="45.43"/><rect class="cls-2" x="149.44" y="453.98" width="1.53" height="45.43"/><rect class="cls-2" x="67.69" y="409.69" width="0.88" height="99.01"/><rect class="cls-2" x="68.56" y="409.69" width="1.62" height="99.01"/><rect class="cls-2" x="70.18" y="409.69" width="1.62" height="99.01"/><rect class="cls-2" x="71.8" y="409.69" width="1.62" height="99.01"/><rect class="cls-2" x="73.42" y="409.69" width="1.62" height="99.01"/><rect class="cls-2" x="75.04" y="409.69" width="1.62" height="99.01"/><rect class="cls-2" x="76.65" y="409.69" width="1.62" height="99.01"/><rect class="cls-2" x="78.27" y="409.69" width="1.62" height="99.01"/><rect class="cls-2" x="79.89" y="409.69" width="1.62" height="99.01"/><rect class="cls-2" x="81.51" y="409.69" width="1.62" height="99.01"/><rect class="cls-2" x="83.12" y="409.69" width="1.62" height="99.01"/><rect class="cls-2" x="84.74" y="409.69" width="1.62" height="99.01"/><rect class="cls-2" x="86.36" y="409.69" width="1.62" height="99.01"/><rect class="cls-2" x="87.97" y="409.69" width="1.62" height="99.01"/><rect class="cls-2" x="89.59" y="409.69" width="1.62" height="99.01"/><rect class="cls-2" x="91.21" y="409.69" width="1.62" height="99.01"/><rect class="cls-2" x="92.83" y="409.69" width="1.62" height="99.01"/><rect class="cls-2" x="94.45" y="409.69" width="1.62" height="99.01"/><rect class="cls-2" x="96.06" y="409.69" width="1.62" height="99.01"/><rect class="cls-2" x="97.68" y="409.69" width="1.62" height="99.01"/><rect class="cls-2" x="99.3" y="409.69" width="1.62" height="99.01"/><rect class="cls-2" x="100.92" y="409.69" width="1.62" height="99.01"/><rect class="cls-2" x="102.53" y="409.69" width="1.62" height="99.01"/><rect class="cls-2" x="104.15" y="409.69" width="1.62" height="99.01"/><rect class="cls-2" x="105.77" y="409.69" width="1.62" height="99.01"/><rect class="cls-2" x="107.38" y="409.69" width="1.62" height="99.01"/><rect class="cls-2" x="109" y="409.69" width="1.62" height="99.01"/><rect class="cls-2" x="110.62" y="409.69" width="1.62" height="99.01"/><rect class="cls-2" x="112.24" y="409.69" width="1.62" height="99.01"/><rect class="cls-2" x="113.86" y="409.69" width="1.62" height="99.01"/><rect class="cls-2" x="115.47" y="409.69" width="1.62" height="99.01"/><rect class="cls-2" x="117.09" y="409.69" width="1.62" height="99.01"/><rect class="cls-2" x="118.71" y="409.69" width="1.62" height="99.01"/><rect class="cls-2" x="120.33" y="409.69" width="1.62" height="99.01"/><rect class="cls-2" x="121.94" y="409.69" width="1.62" height="99.01"/><rect class="cls-2" x="123.56" y="409.69" width="1.62" height="99.01"/><rect class="cls-2" x="125.18" y="409.69" width="1.62" height="99.01"/><rect class="cls-2" x="126.79" y="409.69" width="1.62" height="99.01"/><rect class="cls-2" x="128.41" y="409.69" width="1.1" height="99.01"/><rect class="cls-2" x="101.39" y="292.67" width="1.14" height="90.81"/><rect class="cls-2" x="102.53" y="292.67" width="1.62" height="90.81"/><rect class="cls-2" x="104.15" y="292.67" width="1.62" height="90.81"/><rect class="cls-2" x="105.77" y="292.67" width="1.62" height="90.81"/><rect class="cls-2" x="107.38" y="292.67" width="1.62" height="90.81"/><rect class="cls-2" x="109" y="292.67" width="1.62" height="90.81"/><rect class="cls-2" x="110.62" y="292.67" width="1.62" height="90.81"/><rect class="cls-2" x="112.24" y="292.67" width="1.62" height="90.81"/><rect class="cls-2" x="113.86" y="292.67" width="1.62" height="90.81"/><rect class="cls-2" x="115.47" y="292.67" width="1.62" height="90.81"/><rect class="cls-2" x="117.09" y="292.67" width="1.62" height="90.81"/><rect class="cls-2" x="118.71" y="292.67" width="1.62" height="90.81"/><rect class="cls-2" x="120.33" y="292.67" width="1.62" height="90.81"/><rect class="cls-2" x="121.94" y="292.67" width="1.62" height="90.81"/><rect class="cls-2" x="123.56" y="292.67" width="1.62" height="90.81"/><rect class="cls-2" x="125.18" y="292.67" width="1.62" height="90.81"/><rect class="cls-2" x="126.79" y="292.67" width="1.62" height="90.81"/><rect class="cls-2" x="128.41" y="292.67" width="1.62" height="90.81"/><rect class="cls-2" x="130.03" y="292.67" width="1.62" height="90.81"/><rect class="cls-2" x="131.65" y="292.67" width="1.62" height="90.81"/><rect class="cls-2" x="133.27" y="292.67" width="1.62" height="90.81"/><rect class="cls-2" x="134.88" y="292.67" width="1.62" height="90.81"/><rect class="cls-2" x="136.5" y="292.67" width="1.62" height="90.81"/><rect class="cls-2" x="138.12" y="292.67" width="1.62" height="90.81"/><rect class="cls-2" x="139.74" y="292.67" width="1.62" height="90.81"/><rect class="cls-2" x="141.35" y="292.67" width="1.62" height="90.81"/><rect class="cls-2" x="142.97" y="292.67" width="1.62" height="90.81"/><rect class="cls-2" x="144.59" y="292.67" width="0.11" height="90.81"/><rect class="cls-2" x="52.25" y="278.72" width="1.76" height="286"/><rect class="cls-2" x="54.01" y="278.72" width="1.62" height="286"/><rect class="cls-2" x="55.63" y="278.72" width="1.62" height="286"/><rect class="cls-2" x="57.24" y="278.72" width="1.62" height="286"/><rect class="cls-2" x="58.86" y="278.72" width="1.62" height="286"/><rect class="cls-2" x="60.48" y="278.72" width="1.62" height="286"/><rect class="cls-2" x="62.1" y="278.72" width="1.62" height="286"/><rect class="cls-2" x="63.71" y="278.72" width="1.62" height="286"/><rect class="cls-2" x="65.33" y="278.72" width="1.62" height="286"/><rect class="cls-2" x="66.95" y="278.72" width="1.62" height="286"/><rect class="cls-2" x="68.56" y="278.72" width="1.62" height="286"/><rect class="cls-2" x="70.18" y="278.72" width="1.62" height="286"/><rect class="cls-2" x="71.8" y="278.72" width="1.62" height="286"/><rect class="cls-2" x="73.42" y="278.72" width="1.62" height="286"/><rect class="cls-2" x="75.04" y="278.72" width="1.62" height="286"/><rect class="cls-2" x="76.65" y="278.72" width="1.62" height="286"/><rect class="cls-2" x="78.27" y="278.72" width="1.62" height="286"/><rect class="cls-2" x="79.89" y="278.72" width="1.62" height="286"/><rect class="cls-2" x="81.51" y="278.72" width="1.62" height="286"/><rect class="cls-2" x="83.12" y="278.72" width="1.62" height="286"/><rect class="cls-2" x="84.74" y="278.72" width="1.62" height="286"/><rect class="cls-2" x="86.36" y="278.72" width="1.62" height="286"/><rect class="cls-2" x="87.97" y="278.72" width="1.62" height="286"/><rect class="cls-2" x="89.59" y="278.72" width="1.62" height="286"/><rect class="cls-2" x="91.21" y="278.72" width="1.62" height="286"/><rect class="cls-2" x="92.83" y="278.72" width="1.62" height="286"/><rect class="cls-2" x="94.45" y="278.72" width="1.62" height="286"/><rect class="cls-2" x="96.06" y="278.72" width="1.62" height="286"/><rect class="cls-2" x="97.68" y="278.72" width="1.62" height="286"/><rect class="cls-2" x="99.3" y="278.72" width="1.62" height="286"/><rect class="cls-2" x="100.92" y="278.72" width="1.62" height="286"/><rect class="cls-2" x="102.53" y="278.72" width="1.62" height="286"/><rect class="cls-2" x="104.15" y="278.72" width="1.62" height="286"/><rect class="cls-2" x="105.77" y="278.72" width="1.62" height="286"/><rect class="cls-2" x="107.38" y="278.72" width="1.62" height="286"/><rect class="cls-2" x="109" y="278.72" width="1.62" height="286"/><rect class="cls-2" x="110.62" y="278.72" width="1.62" height="286"/><rect class="cls-2" x="112.24" y="278.72" width="1.62" height="286"/><rect class="cls-2" x="113.86" y="278.72" width="1.62" height="286"/><rect class="cls-2" x="115.47" y="278.72" width="1.62" height="286"/><rect class="cls-2" x="117.09" y="278.72" width="1.62" height="286"/><rect class="cls-2" x="118.71" y="278.72" width="1.62" height="286"/><rect class="cls-2" x="120.33" y="278.72" width="1.62" height="286"/><rect class="cls-2" x="121.94" y="278.72" width="1.62" height="286"/><rect class="cls-2" x="123.56" y="278.72" width="1.62" height="286"/><rect class="cls-2" x="125.18" y="278.72" width="1.62" height="286"/><rect class="cls-2" x="126.79" y="278.72" width="1.62" height="286"/><rect class="cls-2" x="128.41" y="278.72" width="1.62" height="286"/><rect class="cls-2" x="130.03" y="278.72" width="1.62" height="286"/><rect class="cls-2" x="131.65" y="278.72" width="1.62" height="286"/><rect class="cls-2" x="133.27" y="278.72" width="1.62" height="286"/><rect class="cls-2" x="134.88" y="278.72" width="1.62" height="286"/><rect class="cls-2" x="136.5" y="278.72" width="1.62" height="286"/><rect class="cls-2" x="138.12" y="278.72" width="1.62" height="286"/><rect class="cls-2" x="139.74" y="278.72" width="1.62" height="286"/><rect class="cls-2" x="141.35" y="278.72" width="1.62" height="286"/><rect class="cls-2" x="142.97" y="278.72" width="1.62" height="286"/><rect class="cls-2" x="144.59" y="278.72" width="1.62" height="286"/><rect class="cls-2" x="146.21" y="278.72" width="1.62" height="286"/><rect class="cls-2" x="147.82" y="278.72" width="1.62" height="286"/><rect class="cls-2" x="149.44" y="278.72" width="1.62" height="286"/><rect class="cls-2" x="151.06" y="278.72" width="1.62" height="286"/><rect class="cls-2" x="152.68" y="278.72" width="1.62" height="286"/><rect class="cls-2" x="154.29" y="278.72" width="1.62" height="286"/><rect class="cls-2" x="155.91" y="278.72" width="1.62" height="286"/><rect class="cls-2" x="157.53" y="278.72" width="1.62" height="286"/><rect class="cls-2" x="159.15" y="278.72" width="1.62" height="286"/><rect class="cls-2" x="160.76" y="278.72" width="1.62" height="286"/><rect class="cls-2" x="162.38" y="278.72" width="1.61" height="286"/></g><path class="cls-2" d="M247.77,485.13c0,3.92-7.42,22.68-29.53,22.68V423.4h3.92L222,480.65s6.3-7.42,15-7.42S247.77,481.21,247.77,485.13Zm-9.44-2.08c-2.93-2.92-9.15-5.4-16.56,5v15.18s3.62,1.55,11.23-3.2S241.26,486,238.33,483.05Z"/><g class="cls-5"><rect class="cls-2" x="221.77" y="477.65" width="0.44" height="27.17"/><rect class="cls-2" x="222.21" y="477.65" width="0.44" height="27.17"/><rect class="cls-2" x="222.65" y="477.65" width="0.44" height="27.17"/><rect class="cls-2" x="223.08" y="477.65" width="0.44" height="27.17"/><rect class="cls-2" x="223.53" y="477.65" width="0.44" height="27.17"/><rect class="cls-2" x="223.97" y="477.65" width="0.44" height="27.17"/><rect class="cls-2" x="224.41" y="477.65" width="0.44" height="27.17"/><rect class="cls-2" x="224.85" y="477.65" width="0.44" height="27.17"/><rect class="cls-2" x="225.29" y="477.65" width="0.44" height="27.17"/><rect class="cls-2" x="225.73" y="477.65" width="0.44" height="27.17"/><rect class="cls-2" x="226.17" y="477.65" width="0.44" height="27.17"/><rect class="cls-2" x="226.61" y="477.65" width="0.44" height="27.17"/><rect class="cls-2" x="227.05" y="477.65" width="0.44" height="27.17"/><rect class="cls-2" x="227.49" y="477.65" width="0.44" height="27.17"/><rect class="cls-2" x="227.94" y="477.65" width="0.44" height="27.17"/><rect class="cls-2" x="228.37" y="477.65" width="0.44" height="27.17"/><rect class="cls-2" x="228.81" y="477.65" width="0.44" height="27.17"/><rect class="cls-2" x="229.26" y="477.65" width="0.44" height="27.17"/><rect class="cls-2" x="229.7" y="477.65" width="0.44" height="27.17"/><rect class="cls-2" x="230.14" y="477.65" width="0.44" height="27.17"/><rect class="cls-2" x="230.58" y="477.65" width="0.44" height="27.17"/><rect class="cls-2" x="231.02" y="477.65" width="0.44" height="27.17"/><rect class="cls-2" x="231.46" y="477.65" width="0.44" height="27.17"/><rect class="cls-2" x="231.9" y="477.65" width="0.44" height="27.17"/><rect class="cls-2" x="232.34" y="477.65" width="0.44" height="27.17"/><rect class="cls-2" x="232.78" y="477.65" width="0.44" height="27.17"/><rect class="cls-2" x="233.22" y="477.65" width="0.44" height="27.17"/><rect class="cls-2" x="233.67" y="477.65" width="0.44" height="27.17"/><rect class="cls-2" x="234.1" y="477.65" width="0.44" height="27.17"/><rect class="cls-2" x="234.54" y="477.65" width="0.44" height="27.17"/><rect class="cls-2" x="234.99" y="477.65" width="0.44" height="27.17"/><rect class="cls-2" x="235.43" y="477.65" width="0.44" height="27.17"/><rect class="cls-2" x="235.87" y="477.65" width="0.44" height="27.17"/><rect class="cls-2" x="236.31" y="477.65" width="0.44" height="27.17"/><rect class="cls-2" x="236.75" y="477.65" width="0.44" height="27.17"/><rect class="cls-2" x="237.19" y="477.65" width="0.44" height="27.17"/><rect class="cls-2" x="237.63" y="477.65" width="0.44" height="27.17"/><rect class="cls-2" x="238.07" y="477.65" width="0.44" height="27.17"/><rect class="cls-2" x="238.51" y="477.65" width="0.44" height="27.17"/><rect class="cls-2" x="238.96" y="477.65" width="0.44" height="27.17"/><rect class="cls-2" x="239.4" y="477.65" width="0.44" height="27.17"/><rect class="cls-2" x="239.83" y="477.65" width="0.44" height="27.17"/><rect class="cls-2" x="240.28" y="477.65" width="0.44" height="27.17"/><rect class="cls-2" x="240.72" y="477.65" width="0.44" height="27.17"/><rect class="cls-2" x="241.16" y="477.65" width="0.1" height="27.17"/><path class="cls-2" d="M218.24,423.4v0Z"/><rect class="cls-2" x="218.24" y="423.4" width="0.44" height="84.41"/><rect class="cls-2" x="218.68" y="423.4" width="0.44" height="84.41"/><rect class="cls-2" x="219.12" y="423.4" width="0.44" height="84.41"/><rect class="cls-2" x="219.56" y="423.4" width="0.44" height="84.41"/><rect class="cls-2" x="220" y="423.4" width="0.44" height="84.41"/><rect class="cls-2" x="220.44" y="423.4" width="0.44" height="84.41"/><rect class="cls-2" x="220.88" y="423.4" width="0.44" height="84.41"/><rect class="cls-2" x="221.32" y="423.4" width="0.44" height="84.41"/><rect class="cls-2" x="221.76" y="423.4" width="0.44" height="84.41"/><rect class="cls-2" x="222.21" y="423.4" width="0.44" height="84.41"/><rect class="cls-2" x="222.65" y="423.4" width="0.44" height="84.41"/><rect class="cls-2" x="223.08" y="423.4" width="0.44" height="84.41"/><rect class="cls-2" x="223.53" y="423.4" width="0.44" height="84.41"/><rect class="cls-2" x="223.97" y="423.4" width="0.44" height="84.41"/><rect class="cls-2" x="224.41" y="423.4" width="0.44" height="84.41"/><rect class="cls-2" x="224.85" y="423.4" width="0.44" height="84.41"/><rect class="cls-2" x="225.29" y="423.4" width="0.44" height="84.41"/><rect class="cls-2" x="225.73" y="423.4" width="0.44" height="84.41"/><rect class="cls-2" x="226.17" y="423.4" width="0.44" height="84.41"/><rect class="cls-2" x="226.61" y="423.4" width="0.44" height="84.41"/><rect class="cls-2" x="227.05" y="423.4" width="0.44" height="84.41"/><rect class="cls-2" x="227.49" y="423.4" width="0.44" height="84.41"/><rect class="cls-2" x="227.94" y="423.4" width="0.44" height="84.41"/><rect class="cls-2" x="228.37" y="423.4" width="0.44" height="84.41"/><rect class="cls-2" x="228.81" y="423.4" width="0.44" height="84.41"/><rect class="cls-2" x="229.26" y="423.4" width="0.44" height="84.41"/><rect class="cls-2" x="229.7" y="423.4" width="0.44" height="84.41"/><rect class="cls-2" x="230.14" y="423.4" width="0.44" height="84.41"/><rect class="cls-2" x="230.58" y="423.4" width="0.44" height="84.41"/><rect class="cls-2" x="231.02" y="423.4" width="0.44" height="84.41"/><rect class="cls-2" x="231.46" y="423.4" width="0.44" height="84.41"/><rect class="cls-2" x="231.9" y="423.4" width="0.44" height="84.41"/><rect class="cls-2" x="232.34" y="423.4" width="0.44" height="84.41"/><rect class="cls-2" x="232.78" y="423.4" width="0.44" height="84.41"/><rect class="cls-2" x="233.22" y="423.4" width="0.44" height="84.41"/><rect class="cls-2" x="233.67" y="423.4" width="0.44" height="84.41"/><rect class="cls-2" x="234.1" y="423.4" width="0.44" height="84.41"/><rect class="cls-2" x="234.54" y="423.4" width="0.44" height="84.41"/><rect class="cls-2" x="234.99" y="423.4" width="0.44" height="84.41"/><rect class="cls-2" x="235.43" y="423.4" width="0.44" height="84.41"/><rect class="cls-2" x="235.87" y="423.4" width="0.44" height="84.41"/><rect class="cls-2" x="236.31" y="423.4" width="0.44" height="84.41"/><rect class="cls-2" x="236.75" y="423.4" width="0.44" height="84.41"/><rect class="cls-2" x="237.19" y="423.4" width="0.44" height="84.41"/><rect class="cls-2" x="237.63" y="423.4" width="0.44" height="84.41"/><rect class="cls-2" x="238.07" y="423.4" width="0.44" height="84.41"/><rect class="cls-2" x="238.51" y="423.4" width="0.44" height="84.41"/><rect class="cls-2" x="238.96" y="423.4" width="0.44" height="84.41"/><rect class="cls-2" x="239.4" y="423.4" width="0.44" height="84.41"/><rect class="cls-2" x="239.83" y="423.4" width="0.44" height="84.41"/><rect class="cls-2" x="240.28" y="423.4" width="0.44" height="84.41"/><rect class="cls-2" x="240.72" y="423.4" width="0.44" height="84.41"/><rect class="cls-2" x="241.16" y="423.4" width="0.44" height="84.41"/><rect class="cls-2" x="241.6" y="423.4" width="0.44" height="84.41"/><rect class="cls-2" x="242.04" y="423.4" width="0.44" height="84.41"/><rect class="cls-2" x="242.48" y="423.4" width="0.44" height="84.41"/><rect class="cls-2" x="242.92" y="423.4" width="0.44" height="84.41"/><rect class="cls-2" x="243.36" y="423.4" width="0.44" height="84.41"/><rect class="cls-2" x="243.8" y="423.4" width="0.44" height="84.41"/><rect class="cls-2" x="244.24" y="423.4" width="0.44" height="84.41"/><rect class="cls-2" x="244.69" y="423.4" width="0.44" height="84.41"/><rect class="cls-2" x="245.12" y="423.4" width="0.44" height="84.41"/><rect class="cls-2" x="245.56" y="423.4" width="0.44" height="84.41"/><rect class="cls-2" x="246.01" y="423.4" width="0.44" height="84.41"/><rect class="cls-2" x="246.45" y="423.4" width="0.44" height="84.41"/><rect class="cls-2" x="246.89" y="423.4" width="0.44" height="84.41"/><rect class="cls-2" x="247.33" y="423.4" width="0.44" height="84.41"/><path class="cls-2" d="M247.77,507.81v0Z"/></g><path class="cls-2" d="M598.69,223.65l-1.91.11L599,262c-2.54-1.62-6.6-.55-9.45,2.62-3.07,3.42-3.57,8-1.1,10.21s7,1.24,10-2.19a9.59,9.59,0,0,0,2.66-6.72h0l-1.88-32.18c22.24-2.41,10.65,23.47,10.65,23.47C628.78,227.31,598.69,223.65,598.69,223.65Z"/><g class="cls-6"><polygon class="cls-2" points="586.01 268.4 588.29 277.08 586.01 277.08 586.01 268.4"/><polygon class="cls-2" points="586.01 266.23 588.85 277.08 588.29 277.08 586.01 268.4 586.01 266.23"/><polygon class="cls-2" points="586.01 264.05 589.42 277.08 588.85 277.08 586.01 266.23 586.01 264.05"/><polygon class="cls-2" points="586.01 261.89 589.99 277.08 589.42 277.08 586.01 264.05 586.01 261.89"/><polygon class="cls-2" points="586.01 259.71 590.56 277.08 589.99 277.08 586.01 261.89 586.01 259.71"/><polygon class="cls-2" points="586.01 257.54 591.13 277.08 590.56 277.08 586.01 259.71 586.01 257.54"/><polygon class="cls-2" points="586.01 255.37 591.7 277.08 591.13 277.08 586.01 257.54 586.01 255.37"/><polygon class="cls-2" points="586.01 253.2 592.27 277.08 591.7 277.08 586.01 255.37 586.01 253.2"/><polygon class="cls-2" points="586.01 251.03 592.83 277.08 592.27 277.08 586.01 253.2 586.01 251.03"/><polygon class="cls-2" points="586.01 248.86 593.4 277.08 592.83 277.08 586.01 251.03 586.01 248.86"/><polygon class="cls-2" points="586.01 246.69 593.98 277.08 593.4 277.08 586.01 248.86 586.01 246.69"/><polygon class="cls-2" points="586.01 244.52 594.54 277.08 593.98 277.08 586.01 246.69 586.01 244.52"/><polygon class="cls-2" points="586.01 242.35 595.11 277.08 594.54 277.08 586.01 244.52 586.01 242.35"/><polygon class="cls-2" points="586.01 240.18 595.68 277.08 595.11 277.08 586.01 242.35 586.01 240.18"/><polygon class="cls-2" points="586.01 238.01 596.25 277.08 595.68 277.08 586.01 240.18 586.01 238.01"/><polygon class="cls-2" points="586.01 235.84 596.82 277.08 596.25 277.08 586.01 238.01 586.01 235.84"/><polygon class="cls-2" points="586.01 233.67 597.38 277.08 596.82 277.08 586.01 235.84 586.01 233.67"/><polygon class="cls-2" points="586.01 231.5 597.96 277.08 597.38 277.08 586.01 233.67 586.01 231.5"/><polygon class="cls-2" points="586.01 229.32 598.52 277.08 597.96 277.08 586.01 231.5 586.01 229.32"/><polygon class="cls-2" points="586.01 227.16 599.09 277.08 598.52 277.08 586.01 229.32 586.01 227.16"/><polygon class="cls-2" points="586.01 224.98 599.65 277.07 599.6 277.08 599.09 277.08 586.01 227.16 586.01 224.98"/><polygon class="cls-2" points="586.01 224.52 586.43 224.41 600.19 276.93 599.65 277.07 586.01 224.98 586.01 224.52"/><polygon class="cls-2" points="586.43 224.41 586.96 224.27 600.72 276.79 600.19 276.93 586.43 224.41"/><polygon class="cls-2" points="586.96 224.27 587.49 224.13 601.25 276.65 600.72 276.79 586.96 224.27"/><rect class="cls-2" x="594.36" y="223.18" width="0.55" height="54.29" transform="translate(-44.09 159.33) rotate(-14.72)"/><polygon class="cls-2" points="588.02 223.99 588.56 223.85 602.32 276.37 601.79 276.51 588.02 223.99"/><polygon class="cls-2" points="588.56 223.85 589.09 223.71 602.85 276.23 602.32 276.37 588.56 223.85"/><polygon class="cls-2" points="589.09 223.71 589.33 223.65 589.64 223.65 603.38 276.09 602.85 276.23 589.09 223.71"/><polygon class="cls-2" points="590.21 223.65 603.92 275.95 603.38 276.09 589.64 223.65 590.21 223.65"/><polygon class="cls-2" points="590.78 223.65 604.45 275.81 603.92 275.95 590.21 223.65 590.78 223.65"/><polygon class="cls-2" points="591.35 223.65 604.98 275.67 604.45 275.81 590.78 223.65 591.35 223.65"/><polygon class="cls-2" points="591.92 223.65 605.51 275.53 604.98 275.67 591.35 223.65 591.92 223.65"/><polygon class="cls-2" points="592.49 223.65 606.04 275.39 605.51 275.53 591.92 223.65 592.49 223.65"/><polygon class="cls-2" points="593.05 223.65 606.58 275.25 606.04 275.39 592.49 223.65 593.05 223.65"/><polygon class="cls-2" points="593.62 223.65 607.11 275.11 606.58 275.25 593.05 223.65 593.62 223.65"/><polygon class="cls-2" points="594.19 223.65 607.64 274.98 607.11 275.11 593.62 223.65 594.19 223.65"/><polygon class="cls-2" points="594.76 223.65 608.17 274.83 607.64 274.98 594.19 223.65 594.76 223.65"/><polygon class="cls-2" points="595.33 223.65 608.71 274.69 608.17 274.83 594.76 223.65 595.33 223.65"/><polygon class="cls-2" points="595.9 223.65 609.24 274.55 608.71 274.69 595.33 223.65 595.9 223.65"/><polygon class="cls-2" points="596.47 223.65 609.77 274.42 609.24 274.55 595.9 223.65 596.47 223.65"/><polygon class="cls-2" points="597.04 223.65 610.3 274.28 609.77 274.42 596.47 223.65 597.04 223.65"/><polygon class="cls-2" points="597.6 223.65 610.83 274.14 610.3 274.28 597.04 223.65 597.6 223.65"/><polygon class="cls-2" points="598.17 223.65 611.37 274 610.83 274.14 597.6 223.65 598.17 223.65"/><polygon class="cls-2" points="598.74 223.65 611.9 273.86 611.37 274 598.17 223.65 598.74 223.65"/><polygon class="cls-2" points="599.31 223.65 612.43 273.72 611.9 273.86 598.74 223.65 599.31 223.65"/><polygon class="cls-2" points="599.88 223.65 612.96 273.58 612.43 273.72 599.31 223.65 599.88 223.65"/><polygon class="cls-2" points="600.45 223.65 613.49 273.44 612.96 273.58 599.88 223.65 600.45 223.65"/><polygon class="cls-2" points="601.02 223.65 614.03 273.3 613.49 273.44 600.45 223.65 601.02 223.65"/><polygon class="cls-2" points="601.58 223.65 614.56 273.16 614.03 273.3 601.02 223.65 601.58 223.65"/><polygon class="cls-2" points="602.15 223.65 615.09 273.02 614.56 273.16 601.58 223.65 602.15 223.65"/><polygon class="cls-2" points="602.73 223.65 615.62 272.88 615.09 273.02 602.15 223.65 602.73 223.65"/><polygon class="cls-2" points="603.29 223.65 616.15 272.74 615.62 272.88 602.73 223.65 603.29 223.65"/><polygon class="cls-2" points="603.86 223.65 616.69 272.6 616.15 272.74 603.29 223.65 603.86 223.65"/><polygon class="cls-2" points="604.43 223.65 617.22 272.46 616.69 272.6 603.86 223.65 604.43 223.65"/><polygon class="cls-2" points="605 223.65 617.75 272.32 617.22 272.46 604.43 223.65 605 223.65"/><polygon class="cls-2" points="605.57 223.65 618.29 272.18 617.75 272.32 605 223.65 605.57 223.65"/><polygon class="cls-2" points="606.14 223.65 618.82 272.05 618.29 272.18 605.57 223.65 606.14 223.65"/><polygon class="cls-2" points="606.71 223.65 619.35 271.91 618.82 272.05 606.14 223.65 606.71 223.65"/><polygon class="cls-2" points="607.27 223.65 619.88 271.76 619.35 271.91 606.71 223.65 607.27 223.65"/><polygon class="cls-2" points="607.84 223.65 620.42 271.62 619.88 271.76 607.27 223.65 607.84 223.65"/><polygon class="cls-2" points="608.41 223.65 620.95 271.49 620.42 271.62 607.84 223.65 608.41 223.65"/><polygon class="cls-2" points="608.98 223.65 621.48 271.35 620.95 271.49 608.41 223.65 608.98 223.65"/><polygon class="cls-2" points="609.55 223.65 622.01 271.21 621.48 271.35 608.98 223.65 609.55 223.65"/><polygon class="cls-2" points="610.12 223.65 622.54 271.07 622.01 271.21 609.55 223.65 610.12 223.65"/><polygon class="cls-2" points="610.69 223.65 623.08 270.93 622.54 271.07 610.12 223.65 610.69 223.65"/><polygon class="cls-2" points="611.26 223.65 623.61 270.79 623.08 270.93 610.69 223.65 611.26 223.65"/><polygon class="cls-2" points="611.83 223.65 624.14 270.65 623.61 270.79 611.26 223.65 611.83 223.65"/><polygon class="cls-2" points="612.39 223.65 624.67 270.51 624.14 270.65 611.83 223.65 612.39 223.65"/><polygon class="cls-2" points="628.78 269.43 624.67 270.51 612.39 223.65 628.78 223.65 628.78 269.43"/></g><path class="cls-2" d="M337.3,370.49l-2.8-.56L323.2,426.24c-3.07-3.31-9.36-3.3-14.69.21-5.75,3.79-8.2,10.23-5.47,14.37s9.61,4.43,15.37.64a14.38,14.38,0,0,0,6.4-8.73h0l9.49-47.35c33.14,4.95,6.52,38.06,6.52,38.06C379.51,387.22,337.3,370.49,337.3,370.49Z"/><g class="cls-7"><rect class="cls-2" x="300.31" y="369.93" width="1.62" height="75.33"/><rect class="cls-2" x="301.92" y="369.93" width="0.82" height="75.33"/><rect class="cls-2" x="302.75" y="369.93" width="0.82" height="75.33"/><rect class="cls-2" x="303.57" y="369.93" width="0.82" height="75.33"/><rect class="cls-2" x="304.4" y="369.93" width="0.82" height="75.33"/><rect class="cls-2" x="305.22" y="369.93" width="0.82" height="75.33"/><rect class="cls-2" x="306.04" y="369.93" width="0.82" height="75.33"/><rect class="cls-2" x="306.87" y="369.93" width="0.82" height="75.33"/><rect class="cls-2" x="307.69" y="369.93" width="0.82" height="75.33"/><rect class="cls-2" x="308.52" y="369.93" width="0.82" height="75.33"/><rect class="cls-2" x="309.34" y="369.93" width="0.82" height="75.33"/><rect class="cls-2" x="310.17" y="369.93" width="0.82" height="75.33"/><rect class="cls-2" x="310.99" y="369.93" width="0.82" height="75.33"/><rect class="cls-2" x="311.81" y="369.93" width="0.82" height="75.33"/><rect class="cls-2" x="312.64" y="369.93" width="0.82" height="75.33"/><rect class="cls-2" x="313.46" y="369.93" width="0.82" height="75.33"/><rect class="cls-2" x="314.29" y="369.93" width="0.82" height="75.33"/><rect class="cls-2" x="315.11" y="369.93" width="0.82" height="75.33"/><rect class="cls-2" x="315.94" y="369.93" width="0.82" height="75.33"/><rect class="cls-2" x="316.76" y="369.93" width="0.82" height="75.33"/><rect class="cls-2" x="317.58" y="369.93" width="0.82" height="75.33"/><rect class="cls-2" x="318.41" y="369.93" width="0.82" height="75.33"/><rect class="cls-2" x="319.23" y="369.93" width="0.82" height="75.33"/><rect class="cls-2" x="320.06" y="369.93" width="0.82" height="75.33"/><rect class="cls-2" x="320.88" y="369.93" width="0.82" height="75.33"/><rect class="cls-2" x="321.71" y="369.93" width="0.82" height="75.33"/><rect class="cls-2" x="322.53" y="369.93" width="0.82" height="75.33"/><rect class="cls-2" x="323.35" y="369.93" width="0.82" height="75.33"/><rect class="cls-2" x="324.18" y="369.93" width="0.82" height="75.33"/><rect class="cls-2" x="325" y="369.93" width="0.82" height="75.33"/><rect class="cls-2" x="325.83" y="369.93" width="0.82" height="75.33"/><rect class="cls-2" x="326.65" y="369.93" width="0.82" height="75.33"/><rect class="cls-2" x="327.47" y="369.93" width="0.82" height="75.33"/><rect class="cls-2" x="328.3" y="369.93" width="0.82" height="75.33"/><rect class="cls-2" x="329.12" y="369.93" width="0.82" height="75.33"/><rect class="cls-2" x="329.95" y="369.93" width="0.82" height="75.33"/><rect class="cls-2" x="330.77" y="369.93" width="0.82" height="75.33"/><rect class="cls-2" x="331.6" y="369.93" width="0.82" height="75.33"/><rect class="cls-2" x="332.42" y="369.93" width="0.82" height="75.33"/><rect class="cls-2" x="333.24" y="369.93" width="0.82" height="75.33"/><rect class="cls-2" x="334.07" y="369.93" width="0.82" height="75.33"/><rect class="cls-2" x="334.89" y="369.93" width="0.82" height="75.33"/><rect class="cls-2" x="335.72" y="369.93" width="0.82" height="75.33"/><rect class="cls-2" x="336.54" y="369.93" width="0.82" height="75.33"/><rect class="cls-2" x="337.37" y="369.93" width="0.82" height="75.33"/><rect class="cls-2" x="338.19" y="369.93" width="0.82" height="75.33"/><rect class="cls-2" x="339.01" y="369.93" width="0.82" height="75.33"/><rect class="cls-2" x="339.84" y="369.93" width="0.82" height="75.33"/><rect class="cls-2" x="340.66" y="369.93" width="0.82" height="75.33"/><rect class="cls-2" x="341.49" y="369.93" width="0.82" height="75.33"/><rect class="cls-2" x="342.31" y="369.93" width="0.82" height="75.33"/><rect class="cls-2" x="343.13" y="369.93" width="0.82" height="75.33"/><rect class="cls-2" x="343.96" y="369.93" width="0.82" height="75.33"/><rect class="cls-2" x="344.78" y="369.93" width="0.82" height="75.33"/><rect class="cls-2" x="345.61" y="369.93" width="0.82" height="75.33"/><rect class="cls-2" x="346.43" y="369.93" width="0.82" height="75.33"/><rect class="cls-2" x="347.26" y="369.93" width="0.82" height="75.33"/><rect class="cls-2" x="348.08" y="369.93" width="0.82" height="75.33"/><rect class="cls-2" x="348.9" y="369.93" width="0.82" height="75.33"/><rect class="cls-2" x="349.73" y="369.93" width="0.82" height="75.33"/><rect class="cls-2" x="350.55" y="369.93" width="0.82" height="75.33"/><rect class="cls-2" x="351.38" y="369.93" width="0.82" height="75.33"/><rect class="cls-2" x="352.2" y="369.93" width="0.83" height="75.33"/><rect class="cls-2" x="353.03" y="369.93" width="0.82" height="75.33"/><rect class="cls-2" x="353.85" y="369.93" width="0.83" height="75.33"/><rect class="cls-2" x="354.68" y="369.93" width="0.82" height="75.33"/><rect class="cls-2" x="355.5" y="369.93" width="0.83" height="75.33"/><rect class="cls-2" x="356.33" y="369.93" width="0.82" height="75.33"/><rect class="cls-2" x="357.15" y="369.93" width="22.36" height="75.33"/></g><path class="cls-2" d="M552.92,424.74l2,11.36,6.43,37.11c-3.13-1.52-7.65.23-10.5,4.24-3.08,4.33-3.05,9.63.07,11.85s8.14.51,11.23-3.81a11.09,11.09,0,0,0,2.17-8.05h0l-7.23-41.71,40.57-7,6.43,37.11c-3.13-1.52-7.65.23-10.5,4.24-3.08,4.33-3.05,9.63.07,11.85s8.14.51,11.22-3.81A11.08,11.08,0,0,0,607,470h0l-7.23-41.71-2-11.36Z"/><g class="cls-8"><rect class="cls-2" x="547.74" y="416.96" width="0.79" height="74.56"/><rect class="cls-2" x="548.53" y="416.96" width="0.87" height="74.56"/><rect class="cls-2" x="549.4" y="416.96" width="0.87" height="74.56"/><rect class="cls-2" x="550.28" y="416.96" width="0.87" height="74.56"/><rect class="cls-2" x="551.15" y="416.96" width="0.87" height="74.56"/><rect class="cls-2" x="552.03" y="416.96" width="0.87" height="74.56"/><rect class="cls-2" x="552.9" y="416.96" width="0.87" height="74.56"/><rect class="cls-2" x="553.77" y="416.96" width="0.87" height="74.56"/><rect class="cls-2" x="554.65" y="416.96" width="0.87" height="74.56"/><rect class="cls-2" x="555.52" y="416.96" width="0.87" height="74.56"/><rect class="cls-2" x="556.4" y="416.96" width="0.87" height="74.56"/><rect class="cls-2" x="557.27" y="416.96" width="0.87" height="74.56"/><rect class="cls-2" x="558.15" y="416.96" width="0.87" height="74.56"/><rect class="cls-2" x="559.02" y="416.96" width="0.87" height="74.56"/><rect class="cls-2" x="559.9" y="416.96" width="0.87" height="74.56"/><rect class="cls-2" x="560.77" y="416.96" width="0.87" height="74.56"/><rect class="cls-2" x="561.65" y="416.96" width="0.87" height="74.56"/><rect class="cls-2" x="562.52" y="416.96" width="0.87" height="74.56"/><rect class="cls-2" x="563.4" y="416.96" width="0.87" height="74.56"/><rect class="cls-2" x="564.27" y="416.96" width="0.87" height="74.56"/><rect class="cls-2" x="565.14" y="416.96" width="0.87" height="74.56"/><rect class="cls-2" x="566.02" y="416.96" width="0.87" height="74.56"/><rect class="cls-2" x="566.89" y="416.96" width="0.87" height="74.56"/><rect class="cls-2" x="567.77" y="416.96" width="0.87" height="74.56"/><rect class="cls-2" x="568.64" y="416.96" width="0.87" height="74.56"/><rect class="cls-2" x="569.52" y="416.96" width="0.87" height="74.56"/><rect class="cls-2" x="570.39" y="416.96" width="0.87" height="74.56"/><rect class="cls-2" x="571.27" y="416.96" width="0.87" height="74.56"/><rect class="cls-2" x="572.14" y="416.96" width="0.87" height="74.56"/><rect class="cls-2" x="573.01" y="416.96" width="0.87" height="74.56"/><rect class="cls-2" x="573.89" y="416.96" width="0.87" height="74.56"/><rect class="cls-2" x="574.76" y="416.96" width="0.87" height="74.56"/><rect class="cls-2" x="575.64" y="416.96" width="0.87" height="74.56"/><rect class="cls-2" x="576.51" y="416.96" width="0.87" height="74.56"/><rect class="cls-2" x="577.39" y="416.96" width="0.87" height="74.56"/><rect class="cls-2" x="578.26" y="416.96" width="0.87" height="74.56"/><rect class="cls-2" x="579.14" y="416.96" width="0.87" height="74.56"/><rect class="cls-2" x="580.01" y="416.96" width="0.87" height="74.56"/><rect class="cls-2" x="580.89" y="416.96" width="0.87" height="74.56"/><rect class="cls-2" x="581.76" y="416.96" width="0.87" height="74.56"/><rect class="cls-2" x="582.64" y="416.96" width="0.87" height="74.56"/><rect class="cls-2" x="583.51" y="416.96" width="0.87" height="74.56"/><rect class="cls-2" x="584.38" y="416.96" width="0.87" height="74.56"/><rect class="cls-2" x="585.26" y="416.96" width="0.87" height="74.56"/><rect class="cls-2" x="586.13" y="416.96" width="0.87" height="74.56"/><rect class="cls-2" x="587.01" y="416.96" width="0.87" height="74.56"/><rect class="cls-2" x="587.88" y="416.96" width="0.87" height="74.56"/><rect class="cls-2" x="588.76" y="416.96" width="0.87" height="74.56"/><rect class="cls-2" x="589.63" y="416.96" width="0.87" height="74.56"/><rect class="cls-2" x="590.51" y="416.96" width="0.87" height="74.56"/><rect class="cls-2" x="591.38" y="416.96" width="0.87" height="74.56"/><rect class="cls-2" x="592.26" y="416.96" width="0.87" height="74.56"/><rect class="cls-2" x="593.13" y="416.96" width="0.87" height="74.56"/><rect class="cls-2" x="594.01" y="416.96" width="0.87" height="74.56"/><rect class="cls-2" x="594.88" y="416.96" width="0.87" height="74.56"/><rect class="cls-2" x="595.76" y="416.96" width="0.87" height="74.56"/><rect class="cls-2" x="596.63" y="416.96" width="0.87" height="74.56"/><rect class="cls-2" x="597.51" y="416.96" width="0.87" height="74.56"/><rect class="cls-2" x="598.38" y="416.96" width="0.87" height="74.56"/><rect class="cls-2" x="599.26" y="416.96" width="0.87" height="74.56"/><rect class="cls-2" x="600.13" y="416.96" width="0.87" height="74.56"/><rect class="cls-2" x="601.01" y="416.96" width="0.87" height="74.56"/><rect class="cls-2" x="601.88" y="416.96" width="0.87" height="74.56"/><rect class="cls-2" x="602.76" y="416.96" width="0.87" height="74.56"/><rect class="cls-2" x="603.63" y="416.96" width="0.87" height="74.56"/><rect class="cls-2" x="604.5" y="416.96" width="0.87" height="74.56"/><rect class="cls-2" x="605.38" y="416.96" width="0.87" height="74.56"/><rect class="cls-2" x="606.25" y="416.96" width="0.87" height="74.56"/><rect class="cls-2" x="607.13" y="416.96" width="0.3" height="74.56"/></g><path class="cls-2" d="M680,411.67l-2.12,7.19L671,442.33c-1.39-1.79-4.52-2.07-7.34-.55-3,1.63-4.55,4.73-3.37,6.92s4.6,2.64,7.64,1a7.22,7.22,0,0,0,3.58-4.07h0l7.79-26.38,25.65,7.58L698,450.31c-1.38-1.79-4.52-2.07-7.33-.55-3,1.63-4.55,4.73-3.37,6.93s4.59,2.64,7.63,1a7.2,7.2,0,0,0,3.58-4.07h0l7.79-26.38,2.12-7.19Z"/><g class="cls-9"><polygon class="cls-2" points="676.86 411.67 659.1 447.62 659.1 411.67 676.86 411.67"/><polygon class="cls-2" points="677.49 411.67 659.1 448.91 659.1 447.62 676.86 411.67 677.49 411.67"/><polygon class="cls-2" points="678.12 411.67 659.1 450.19 659.1 448.91 677.49 411.67 678.12 411.67"/><polygon class="cls-2" points="678.76 411.67 659.1 451.48 659.1 450.19 678.12 411.67 678.76 411.67"/><polygon class="cls-2" points="679.39 411.67 659.41 452.11 659.1 451.95 659.1 451.48 678.76 411.67 679.39 411.67"/><polygon class="cls-2" points="680.02 411.67 659.92 452.36 659.41 452.11 679.39 411.67 680.02 411.67"/><polygon class="cls-2" points="680.66 411.67 660.44 452.62 659.92 452.36 680.02 411.67 680.66 411.67"/><polygon class="cls-2" points="681.29 411.67 660.94 452.87 660.44 452.62 680.66 411.67 681.29 411.67"/><polygon class="cls-2" points="681.93 411.67 661.45 453.12 660.94 452.87 681.29 411.67 681.93 411.67"/><polygon class="cls-2" points="682.56 411.67 661.96 453.37 661.45 453.12 681.93 411.67 682.56 411.67"/><polygon class="cls-2" points="683.19 411.67 662.47 453.62 661.96 453.37 682.56 411.67 683.19 411.67"/><polygon class="cls-2" points="683.83 411.67 662.98 453.87 662.47 453.62 683.19 411.67 683.83 411.67"/><polygon class="cls-2" points="684.46 411.67 663.49 454.12 662.98 453.87 683.83 411.67 684.46 411.67"/><polygon class="cls-2" points="685.1 411.67 664 454.37 663.49 454.12 684.46 411.67 685.1 411.67"/><polygon class="cls-2" points="685.73 411.67 664.51 454.63 664 454.37 685.1 411.67 685.73 411.67"/><polygon class="cls-2" points="686.37 411.67 665.02 454.88 664.51 454.63 685.73 411.67 686.37 411.67"/><polygon class="cls-2" points="687 411.67 665.53 455.13 665.02 454.88 686.37 411.67 687 411.67"/><polygon class="cls-2" points="687.63 411.67 666.04 455.38 665.53 455.13 687 411.67 687.63 411.67"/><polygon class="cls-2" points="688.26 411.67 666.55 455.64 666.04 455.38 687.63 411.67 688.26 411.67"/><polygon class="cls-2" points="688.9 411.67 667.06 455.89 666.55 455.64 688.26 411.67 688.9 411.67"/><polygon class="cls-2" points="689.53 411.67 667.57 456.14 667.06 455.89 688.9 411.67 689.53 411.67"/><polygon class="cls-2" points="690.17 411.67 668.08 456.39 667.57 456.14 689.53 411.67 690.17 411.67"/><polygon class="cls-2" points="690.8 411.67 668.58 456.64 668.08 456.39 690.17 411.67 690.8 411.67"/><polygon class="cls-2" points="691.44 411.67 669.1 456.89 668.58 456.64 690.8 411.67 691.44 411.67"/><polygon class="cls-2" points="692.07 411.67 669.61 457.14 669.1 456.89 691.44 411.67 692.07 411.67"/><polygon class="cls-2" points="692.7 411.67 670.12 457.4 669.61 457.14 692.07 411.67 692.7 411.67"/><polygon class="cls-2" points="693.33 411.67 670.62 457.65 670.12 457.4 692.7 411.67 693.33 411.67"/><polygon class="cls-2" points="693.97 411.67 671.13 457.9 670.62 457.65 693.33 411.67 693.97 411.67"/><polygon class="cls-2" points="694.6 411.67 671.64 458.15 671.13 457.9 693.97 411.67 694.6 411.67"/><polygon class="cls-2" points="695.24 411.67 672.15 458.41 671.64 458.15 694.6 411.67 695.24 411.67"/><polygon class="cls-2" points="695.87 411.67 672.66 458.66 672.15 458.41 695.24 411.67 695.87 411.67"/><polygon class="cls-2" points="695.97 411.67 696.4 411.88 673.17 458.91 672.66 458.66 695.87 411.67 695.97 411.67"/><polygon class="cls-2" points="696.4 411.88 696.91 412.13 673.68 459.16 673.17 458.91 696.4 411.88"/><polygon class="cls-2" points="696.91 412.13 697.42 412.39 674.23 459.33 674.02 459.33 673.68 459.16 696.91 412.13"/><polygon class="cls-2" points="697.42 412.39 697.93 412.64 674.87 459.33 674.23 459.33 697.42 412.39"/><polygon class="cls-2" points="697.93 412.64 698.44 412.89 675.5 459.33 674.87 459.33 697.93 412.64"/><polygon class="cls-2" points="698.44 412.89 698.95 413.14 676.13 459.33 675.5 459.33 698.44 412.89"/><polygon class="cls-2" points="698.95 413.14 699.46 413.39 676.77 459.33 676.13 459.33 698.95 413.14"/><polygon class="cls-2" points="699.46 413.39 699.97 413.64 677.4 459.33 676.77 459.33 699.46 413.39"/><polygon class="cls-2" points="699.97 413.64 700.48 413.9 678.04 459.33 677.4 459.33 699.97 413.64"/><polygon class="cls-2" points="700.48 413.9 700.99 414.15 678.67 459.33 678.04 459.33 700.48 413.9"/><polygon class="cls-2" points="700.99 414.15 701.5 414.4 679.3 459.33 678.67 459.33 700.99 414.15"/><polygon class="cls-2" points="701.5 414.4 702.01 414.65 679.94 459.33 679.3 459.33 701.5 414.4"/><polygon class="cls-2" points="702.01 414.65 702.51 414.9 680.57 459.33 679.94 459.33 702.01 414.65"/><polygon class="cls-2" points="702.51 414.9 703.02 415.16 681.21 459.33 680.57 459.33 702.51 414.9"/><polygon class="cls-2" points="703.02 415.16 703.53 415.41 681.84 459.33 681.21 459.33 703.02 415.16"/><polygon class="cls-2" points="703.53 415.41 704.04 415.66 682.48 459.33 681.84 459.33 703.53 415.41"/><polygon class="cls-2" points="704.04 415.66 704.55 415.91 683.11 459.33 682.48 459.33 704.04 415.66"/><polygon class="cls-2" points="704.55 415.91 705.06 416.16 683.74 459.33 683.11 459.33 704.55 415.91"/><polygon class="cls-2" points="705.06 416.16 705.57 416.41 684.38 459.33 683.74 459.33 705.06 416.16"/><polygon class="cls-2" points="705.57 416.41 706.08 416.66 685.01 459.33 684.38 459.33 705.57 416.41"/><polygon class="cls-2" points="706.08 416.66 706.59 416.92 685.64 459.33 685.01 459.33 706.08 416.66"/><polygon class="cls-2" points="706.59 416.92 707.1 417.17 686.28 459.33 685.64 459.33 706.59 416.92"/><polygon class="cls-2" points="707.1 417.17 707.61 417.42 686.91 459.33 686.28 459.33 707.1 417.17"/><polygon class="cls-2" points="707.61 417.42 708.12 417.67 687.54 459.33 686.91 459.33 707.61 417.42"/><polygon class="cls-2" points="708.12 417.67 708.44 417.83 708.44 418.31 688.18 459.33 687.54 459.33 708.12 417.67"/><polygon class="cls-2" points="708.44 419.6 688.81 459.33 688.18 459.33 708.44 418.31 708.44 419.6"/><polygon class="cls-2" points="708.44 420.88 689.45 459.33 688.81 459.33 708.44 419.6 708.44 420.88"/><polygon class="cls-2" points="708.44 422.16 690.08 459.33 689.45 459.33 708.44 420.88 708.44 422.16"/><polygon class="cls-2" points="708.44 423.44 690.72 459.33 690.08 459.33 708.44 422.16 708.44 423.44"/><polygon class="cls-2" points="708.44 424.73 691.35 459.33 690.72 459.33 708.44 423.44 708.44 424.73"/><polygon class="cls-2" points="708.44 426.01 691.98 459.33 691.35 459.33 708.44 424.73 708.44 426.01"/><polygon class="cls-2" points="708.44 427.3 692.62 459.33 691.98 459.33 708.44 426.01 708.44 427.3"/><polygon class="cls-2" points="708.44 428.58 693.25 459.33 692.62 459.33 708.44 427.3 708.44 428.58"/><polygon class="cls-2" points="708.44 429.86 693.88 459.33 693.25 459.33 708.44 428.58 708.44 429.86"/><polygon class="cls-2" points="708.44 431.15 694.52 459.33 693.88 459.33 708.44 429.86 708.44 431.15"/><polygon class="cls-2" points="708.44 432.43 695.15 459.33 694.52 459.33 708.44 431.15 708.44 432.43"/><polygon class="cls-2" points="708.44 433.71 695.79 459.33 695.15 459.33 708.44 432.43 708.44 433.71"/><polygon class="cls-2" points="695.79 459.33 708.44 433.71 708.44 459.33 695.79 459.33"/></g><path class="cls-2" d="M601.52,38.71l3.8,9.36,12.42,30.57c-3-.72-6.5,1.62-8.2,5.58-1.83,4.28-.82,8.81,2.27,10.14s7.06-1.08,8.9-5.36a9.72,9.72,0,0,0,.35-7.3h0l-14-34.36L636,35.62,648.4,66.18c-3-.72-6.5,1.63-8.2,5.59-1.83,4.28-.82,8.81,2.27,10.14s7.06-1.08,8.89-5.36a9.71,9.71,0,0,0,.36-7.3h0l-14-34.36,28.86-11.73L679,53.73c-3-.72-6.5,1.63-8.2,5.58-1.83,4.28-.82,8.81,2.27,10.14s7.07-1.08,8.9-5.36a9.71,9.71,0,0,0,.36-7.29h0l-14-34.36-3.8-9.36Z"/><g class="cls-10"><polygon class="cls-2" points="601.52 80.56 611.85 95.67 601.52 95.67 601.52 80.56"/><polygon class="cls-2" points="601.52 78.17 613.48 95.67 611.85 95.67 601.52 80.56 601.52 78.17"/><polygon class="cls-2" points="601.52 75.79 615.12 95.67 613.48 95.67 601.52 78.17 601.52 75.79"/><polygon class="cls-2" points="601.52 73.41 616.74 95.67 615.12 95.67 601.52 75.79 601.52 73.41"/><polygon class="cls-2" points="601.52 71.02 618.37 95.67 616.74 95.67 601.52 73.41 601.52 71.02"/><polygon class="cls-2" points="601.52 68.64 620.01 95.67 618.37 95.67 601.52 71.02 601.52 68.64"/><polygon class="cls-2" points="601.52 66.25 621.63 95.67 620.01 95.67 601.52 68.64 601.52 66.25"/><polygon class="cls-2" points="601.52 63.87 623.26 95.67 621.63 95.67 601.52 66.25 601.52 63.87"/><polygon class="cls-2" points="601.52 61.48 624.9 95.67 623.26 95.67 601.52 63.87 601.52 61.48"/><polygon class="cls-2" points="601.52 59.1 626.52 95.67 624.9 95.67 601.52 61.48 601.52 59.1"/><polygon class="cls-2" points="601.52 56.71 628.15 95.67 626.52 95.67 601.52 59.1 601.52 56.71"/><polygon class="cls-2" points="601.52 54.33 629.79 95.67 628.15 95.67 601.52 56.71 601.52 54.33"/><polygon class="cls-2" points="601.52 51.95 631.42 95.67 629.79 95.67 601.52 54.33 601.52 51.95"/><polygon class="cls-2" points="601.52 49.56 633.04 95.67 631.42 95.67 601.52 51.95 601.52 49.56"/><polygon class="cls-2" points="601.52 47.17 634.68 95.67 633.04 95.67 601.52 49.56 601.52 47.17"/><polygon class="cls-2" points="601.52 44.79 636.3 95.67 634.68 95.67 601.52 47.17 601.52 44.79"/><polygon class="cls-2" points="601.52 42.41 637.94 95.67 636.3 95.67 601.52 44.79 601.52 42.41"/><polygon class="cls-2" points="601.52 40.02 639.57 95.67 637.94 95.67 601.52 42.41 601.52 40.02"/><polygon class="cls-2" points="601.52 37.64 641.19 95.67 639.57 95.67 601.52 40.02 601.52 37.64"/><polygon class="cls-2" points="601.52 36.29 602.01 35.96 642.83 95.67 641.19 95.67 601.52 37.64 601.52 36.29"/><polygon class="cls-2" points="602.01 35.96 603.12 35.2 644.24 95.36 643.79 95.67 642.83 95.67 602.01 35.96"/><rect class="cls-2" x="623.56" y="28.46" width="1.35" height="72.87" transform="translate(71.68 362.5) rotate(-34.24)"/><rect class="cls-2" x="624.67" y="27.7" width="1.35" height="72.87" transform="translate(73.02 364.32) rotate(-34.38)"/><rect class="cls-2" x="625.79" y="26.94" width="1.34" height="72.87" transform="translate(73.43 364.42) rotate(-34.34)"/><rect class="cls-2" x="626.9" y="26.19" width="1.34" height="72.87" transform="translate(74.05 364.92) rotate(-34.34)"/><rect class="cls-2" x="628.01" y="25.43" width="1.35" height="72.87" transform="translate(74.89 365.8) rotate(-34.38)"/><rect class="cls-2" x="629.12" y="24.67" width="1.34" height="72.87" transform="translate(75.28 365.88) rotate(-34.34)"/><rect class="cls-2" x="630.23" y="23.91" width="1.35" height="72.87" transform="translate(76.15 366.81) rotate(-34.38)"/><rect class="cls-2" x="631.34" y="23.15" width="1.34" height="72.87" transform="translate(76.52 366.87) rotate(-34.34)"/><rect class="cls-2" x="632.45" y="22.39" width="1.34" height="72.87" transform="translate(77.15 367.36) rotate(-34.34)"/><rect class="cls-2" x="633.56" y="21.63" width="1.35" height="72.87" transform="translate(78.02 368.31) rotate(-34.38)"/><rect class="cls-2" x="634.67" y="20.87" width="1.34" height="72.87" transform="translate(78.4 368.37) rotate(-34.34)"/><rect class="cls-2" x="635.78" y="20.11" width="1.35" height="72.87" transform="translate(79.25 369.26) rotate(-34.38)"/><rect class="cls-2" x="636.9" y="19.35" width="1.34" height="72.87" transform="translate(79.63 369.34) rotate(-34.34)"/><polygon class="cls-2" points="617.56 25.33 618.67 24.57 659.79 84.73 658.69 85.49 617.56 25.33"/><polygon class="cls-2" points="618.67 24.57 619.78 23.81 660.91 83.97 659.79 84.73 618.67 24.57"/><rect class="cls-2" x="640.23" y="17.07" width="1.35" height="72.87" transform="translate(82.27 372.18) rotate(-34.48)"/><rect class="cls-2" x="641.34" y="16.31" width="1.35" height="72.87" transform="translate(81.62 370.43) rotate(-34.25)"/><rect class="cls-2" x="642.45" y="15.55" width="1.34" height="72.87" transform="translate(82.74 371.81) rotate(-34.34)"/><rect class="cls-2" x="643.56" y="14.79" width="1.34" height="72.87" transform="translate(84.14 373.64) rotate(-34.47)"/><polygon class="cls-2" points="624.23 20.77 625.34 20.01 666.46 80.17 665.35 80.93 624.23 20.77"/><rect class="cls-2" x="645.78" y="13.27" width="1.35" height="72.87" transform="translate(85.39 374.64) rotate(-34.47)"/><rect class="cls-2" x="646.89" y="12.51" width="1.35" height="72.87" transform="translate(84.7 372.87) rotate(-34.24)"/><rect class="cls-2" x="648.01" y="11.76" width="1.34" height="72.87" transform="translate(85.85 374.28) rotate(-34.34)"/><rect class="cls-2" x="649.11" y="11" width="1.34" height="72.87" transform="translate(87.28 376.15) rotate(-34.48)"/><polygon class="cls-2" points="629.78 16.97 630.89 16.21 672.02 76.37 670.9 77.13 629.78 16.97"/><rect class="cls-2" x="651.34" y="9.48" width="1.35" height="72.87" transform="translate(88.51 377.11) rotate(-34.47)"/><rect class="cls-2" x="652.45" y="8.72" width="1.35" height="72.87" transform="translate(87.8 375.33) rotate(-34.24)"/><rect class="cls-2" x="653.56" y="7.96" width="1.34" height="72.87" transform="translate(88.96 376.75) rotate(-34.34)"/><polygon class="cls-2" points="634.23 13.94 635.33 13.18 676.46 73.33 675.35 74.09 634.23 13.94"/><polygon class="cls-2" points="635.33 13.18 635.48 13.07 636.9 13.07 677.57 72.57 676.46 73.33 635.33 13.18"/><polygon class="cls-2" points="638.53 13.07 678.69 71.82 677.57 72.57 636.9 13.07 638.53 13.07"/><polygon class="cls-2" points="640.16 13.07 679.79 71.05 678.69 71.82 638.53 13.07 640.16 13.07"/><polygon class="cls-2" points="641.79 13.07 680.9 70.3 679.79 71.05 640.16 13.07 641.79 13.07"/><polygon class="cls-2" points="643.42 13.07 682.02 69.54 680.9 70.3 641.79 13.07 643.42 13.07"/><polygon class="cls-2" points="645.05 13.07 683.13 68.78 682.02 69.54 643.42 13.07 645.05 13.07"/><polygon class="cls-2" points="646.68 13.07 683.18 66.47 683.18 68.74 683.13 68.78 645.05 13.07 646.68 13.07"/><polygon class="cls-2" points="648.31 13.07 683.18 64.08 683.18 66.47 646.68 13.07 648.31 13.07"/><polygon class="cls-2" points="649.94 13.07 683.18 61.7 683.18 64.08 648.31 13.07 649.94 13.07"/><polygon class="cls-2" points="651.57 13.07 683.18 59.32 683.18 61.7 649.94 13.07 651.57 13.07"/><polygon class="cls-2" points="653.2 13.07 683.18 56.93 683.18 59.32 651.57 13.07 653.2 13.07"/><polygon class="cls-2" points="654.83 13.07 683.18 54.55 683.18 56.93 653.2 13.07 654.83 13.07"/><polygon class="cls-2" points="656.46 13.07 683.18 52.16 683.18 54.55 654.83 13.07 656.46 13.07"/><polygon class="cls-2" points="658.09 13.07 683.18 49.78 683.18 52.16 656.46 13.07 658.09 13.07"/><polygon class="cls-2" points="659.72 13.07 683.18 47.39 683.18 49.78 658.09 13.07 659.72 13.07"/><polygon class="cls-2" points="661.35 13.07 683.18 45.01 683.18 47.39 659.72 13.07 661.35 13.07"/><polygon class="cls-2" points="662.98 13.07 683.18 42.62 683.18 45.01 661.35 13.07 662.98 13.07"/><polygon class="cls-2" points="664.61 13.07 683.18 40.24 683.18 42.62 662.98 13.07 664.61 13.07"/><polygon class="cls-2" points="683.18 40.24 664.61 13.07 683.18 13.07 683.18 40.24"/></g><path class="cls-2" d="M421.84,500.09l-2,9.06-6.42,29.61c-1.87-2.08-5.77-2.14-9.11,0-3.6,2.29-5.19,6.26-3.53,8.86s5.92,2.84,9.52.55a8.93,8.93,0,0,0,4-5.35h0l7.22-33.28,28,6.07-6.42,29.61c-1.87-2.08-5.77-2.13-9.11,0-3.61,2.3-5.19,6.26-3.53,8.86s5.92,2.84,9.52.55a8.92,8.92,0,0,0,4.05-5.35h0L451.29,516l28,6.07-6.42,29.61c-1.87-2.08-5.77-2.13-9.11,0-3.61,2.29-5.19,6.26-3.53,8.86s5.92,2.84,9.52.55a8.92,8.92,0,0,0,4-5.34h0L481,522.42l2-9.06Z"/><g class="cls-11"><rect class="cls-2" x="399.15" y="500.09" width="1" height="63.25"/><rect class="cls-2" x="400.15" y="500.09" width="1.23" height="63.25"/><rect class="cls-2" x="401.38" y="500.09" width="1.24" height="63.25"/><rect class="cls-2" x="402.62" y="500.09" width="1.23" height="63.25"/><rect class="cls-2" x="403.86" y="500.09" width="1.23" height="63.25"/><rect class="cls-2" x="405.09" y="500.09" width="1.24" height="63.25"/><rect class="cls-2" x="406.33" y="500.09" width="1.23" height="63.25"/><rect class="cls-2" x="407.56" y="500.09" width="1.24" height="63.25"/><rect class="cls-2" x="408.8" y="500.09" width="1.23" height="63.25"/><rect class="cls-2" x="410.04" y="500.09" width="1.23" height="63.25"/><rect class="cls-2" x="411.27" y="500.09" width="1.23" height="63.25"/><rect class="cls-2" x="412.51" y="500.09" width="1.24" height="63.25"/><rect class="cls-2" x="413.74" y="500.09" width="1.23" height="63.25"/><rect class="cls-2" x="414.98" y="500.09" width="1.24" height="63.25"/><rect class="cls-2" x="416.22" y="500.09" width="1.23" height="63.25"/><rect class="cls-2" x="417.45" y="500.09" width="1.23" height="63.25"/><rect class="cls-2" x="418.69" y="500.09" width="1.24" height="63.25"/><rect class="cls-2" x="419.92" y="500.09" width="1.23" height="63.25"/><rect class="cls-2" x="421.16" y="500.09" width="1.24" height="63.25"/><rect class="cls-2" x="422.4" y="500.09" width="1.23" height="63.25"/><rect class="cls-2" x="423.63" y="500.09" width="1.23" height="63.25"/><rect class="cls-2" x="424.87" y="500.09" width="1.23" height="63.25"/><rect class="cls-2" x="426.1" y="500.09" width="1.24" height="63.25"/><rect class="cls-2" x="427.34" y="500.09" width="1.23" height="63.25"/><rect class="cls-2" x="428.57" y="500.09" width="1.24" height="63.25"/><rect class="cls-2" x="429.81" y="500.09" width="1.23" height="63.25"/><rect class="cls-2" x="431.04" y="500.09" width="1.23" height="63.25"/><rect class="cls-2" x="432.28" y="500.09" width="1.24" height="63.25"/><rect class="cls-2" x="433.52" y="500.09" width="1.23" height="63.25"/><rect class="cls-2" x="434.75" y="500.09" width="1.24" height="63.25"/><rect class="cls-2" x="435.99" y="500.09" width="1.23" height="63.25"/><rect class="cls-2" x="437.22" y="500.09" width="1.23" height="63.25"/><rect class="cls-2" x="438.46" y="500.09" width="1.24" height="63.25"/><rect class="cls-2" x="439.7" y="500.09" width="1.23" height="63.25"/><rect class="cls-2" x="440.93" y="500.09" width="1.23" height="63.25"/><rect class="cls-2" x="442.17" y="500.09" width="1.24" height="63.25"/><rect class="cls-2" x="443.4" y="500.09" width="1.23" height="63.25"/><rect class="cls-2" x="444.64" y="500.09" width="1.23" height="63.25"/><rect class="cls-2" x="445.87" y="500.09" width="1.24" height="63.25"/><rect class="cls-2" x="447.11" y="500.09" width="1.23" height="63.25"/><rect class="cls-2" x="448.35" y="500.09" width="1.24" height="63.25"/><rect class="cls-2" x="449.58" y="500.09" width="1.23" height="63.25"/><rect class="cls-2" x="450.82" y="500.09" width="1.23" height="63.25"/><rect class="cls-2" x="452.05" y="500.09" width="1.24" height="63.25"/><rect class="cls-2" x="453.29" y="500.09" width="1.23" height="63.25"/><rect class="cls-2" x="454.53" y="500.09" width="1.24" height="63.25"/><rect class="cls-2" x="455.76" y="500.09" width="1.23" height="63.25"/><rect class="cls-2" x="457" y="500.09" width="1.23" height="63.25"/><rect class="cls-2" x="458.23" y="500.09" width="1.23" height="63.25"/><rect class="cls-2" x="459.47" y="500.09" width="1.24" height="63.25"/><rect class="cls-2" x="460.71" y="500.09" width="1.23" height="63.25"/><rect class="cls-2" x="461.94" y="500.09" width="1.24" height="63.25"/><rect class="cls-2" x="463.18" y="500.09" width="1.23" height="63.25"/><rect class="cls-2" x="464.41" y="500.09" width="1.23" height="63.25"/><rect class="cls-2" x="465.65" y="500.09" width="1.24" height="63.25"/><rect class="cls-2" x="466.88" y="500.09" width="1.23" height="63.25"/><rect class="cls-2" x="468.12" y="500.09" width="1.24" height="63.25"/><rect class="cls-2" x="469.36" y="500.09" width="1.23" height="63.25"/><rect class="cls-2" x="470.59" y="500.09" width="1.23" height="63.25"/><rect class="cls-2" x="471.83" y="500.09" width="1.23" height="63.25"/><rect class="cls-2" x="473.06" y="500.09" width="1.24" height="63.25"/><rect class="cls-2" x="474.3" y="500.09" width="1.23" height="63.25"/><rect class="cls-2" x="475.53" y="500.09" width="1.24" height="63.25"/><rect class="cls-2" x="476.77" y="500.09" width="1.23" height="63.25"/><rect class="cls-2" x="478.01" y="500.09" width="1.23" height="63.25"/><rect class="cls-2" x="479.24" y="500.09" width="1.24" height="63.25"/><rect class="cls-2" x="480.48" y="500.09" width="1.23" height="63.25"/><rect class="cls-2" x="481.71" y="500.09" width="1.24" height="63.25"/><path class="cls-2" d="M483,563.34v0Z"/></g><rect class="cls-2" x="23.54" y="329.04" width="14.73" height="186.72" transform="translate(-25.24 2.61) rotate(-3.43)"/><path class="cls-12" d="M.25,362.37S110.79,328,307.9,399.91,676,391.57,628.07,310.23,491.45,125.63,508.13,81.83,637.61-20.48,802.39,19.15"/><path class="cls-13" d="M.25,392.41s125.16-39.8,322.27,32.16,368.14-8.34,320.17-89.69S506.06,150.28,522.75,106.48,637.61,2.43,802.39,42.06"/><path class="cls-14" d="M.25,417.41s141.85-38.73,339,33.23,368.14-8.34,320.17-89.69S522.75,176.36,539.44,132.56s98.18-108,263-68.33"/><path class="cls-15" d="M.25,447.18s157.84-44.59,354.95,27.37,368.14-8.34,320.17-89.69S538.74,200.27,555.43,156.47,637.61,48,802.39,87.62"/><path class="cls-16" d="M.25,478.38s174.32-46.26,371.43,25.7,368.14-8.34,320.17-89.69S555.23,229.8,571.91,186s65.7-113.67,230.48-74"/><path class="cls-17" d="M135.81,265.68c.1,0,.11,0,.13.11,10.85,17.5,18.22,49.41,14.44,74-1.84,11.88-5.8,21.78-12.25,29.93S122.59,383.49,115,391c2.46,10.16,4.87,20.34,7.2,30.65A29.2,29.2,0,0,1,148,428.69a42.54,42.54,0,0,1,13.38,22.92,36.12,36.12,0,0,1-4.69,27.73c-4.57,7.34-10.94,12.4-18.85,16.66,3.68,19.31,4.55,38.71-6.27,48.07-5.37,4.64-14.81,7.56-23.65,7.58-8.51,0-16-2.6-20.94-7.52-5.34-5.41-6.26-16.37-3.09-23.21,2.76-5.93,9.72-12.08,19.07-9.69,6.28,1.61,13.64,7.69,12.95,17.13-.58,7.6-5.28,14.48-14.31,15.36,3,3.61,11.16,3.23,16.49,1.32a22.69,22.69,0,0,0,14.77-16.62c1.77-8.17-.69-18.94-1.85-29.12a60.56,60.56,0,0,1-28.44,3.43A61,61,0,0,1,80,494.58c-13-7.77-23.44-19.78-25.62-41.25s4.67-34.76,15.68-45.84c10.77-10.81,22.74-20.75,33.82-31.33-7.32-38.29-2-69.07,12.92-91A83.71,83.71,0,0,1,135.81,265.68ZM110,370.41a25,25,0,0,0,4.23-3.86c9.85-9.6,19.28-20.21,25-33a55.08,55.08,0,0,0,4.87-26.15c-.68-10.86-4.09-19.66-8.05-27.68,0-.06,0-.12-.13-.08C116.13,300.06,101.39,329.28,110,370.41Zm-4.37,88.11c-1.48,9.43,2.61,19.28,6.89,23.84A48.19,48.19,0,0,1,101,469.64a35.44,35.44,0,0,1-5.37-19.19c.35-13.58,8.78-20.83,19.61-26.46-2.18-9.19-4.47-18.21-6.69-27.37-8.84,7.69-17.55,15.61-25.34,24.74a79,79,0,0,0-10.09,14.51c-2.72,5.25-5.46,11.38-4.5,19.07.46,3.66,1,8.72,2.3,12.18a46,46,0,0,0,17.47,22.27,33.66,33.66,0,0,0,18.64,6.1c8.06.14,15.88-2.45,22.44-5.38-2.92-16.78-6.44-32.8-10.13-48.57C111.16,443.92,106.88,450.56,105.61,458.52Zm42.58,1.28c-2.5-11.44-11-17.62-21.57-18.89,3,14.76,6.37,30.29,9.41,45.43C144.21,480.71,151,472.51,148.19,459.79Z"/><path class="cls-18" d="M247.77,472.06c0,3.92-7.42,22.68-29.53,22.68V410.33h3.92L222,467.58s6.3-7.42,15-7.42S247.77,468.14,247.77,472.06ZM238.33,470c-2.93-2.92-9.15-5.4-16.56,5v15.18s3.62,1.55,11.23-3.2S241.26,472.9,238.33,470Z"/><path class="cls-19" d="M598.69,210.58l-1.91.11L599,249c-2.54-1.62-6.6-.55-9.45,2.62-3.07,3.42-3.57,8-1.1,10.21s7,1.24,10-2.19a9.59,9.59,0,0,0,2.66-6.72h0l-1.88-32.18c22.24-2.41,10.65,23.47,10.65,23.47C628.78,214.24,598.69,210.58,598.69,210.58Z"/><path class="cls-20" d="M337.3,357.41l-2.8-.56L323.2,413.17c-3.07-3.31-9.36-3.3-14.69.21-5.75,3.79-8.2,10.23-5.47,14.37s9.61,4.43,15.37.64a14.38,14.38,0,0,0,6.4-8.73h0l9.49-47.35c33.14,4.95,6.52,38.06,6.52,38.06C379.51,374.15,337.3,357.41,337.3,357.41Z"/><path class="cls-21" d="M552.92,411.67l2,11.36,6.43,37.11c-3.13-1.52-7.65.23-10.5,4.24-3.08,4.33-3.05,9.63.07,11.85s8.14.51,11.23-3.81a11.09,11.09,0,0,0,2.17-8.05h0l-7.23-41.71,40.57-7,6.43,37.11c-3.13-1.52-7.65.23-10.5,4.24-3.08,4.33-3.05,9.63.07,11.85s8.14.51,11.22-3.81A11.08,11.08,0,0,0,607,457h0l-7.23-41.71-2-11.36Z"/><path class="cls-22" d="M680,398.59l-2.12,7.19L671,429.25c-1.39-1.79-4.52-2.07-7.34-.55-3,1.63-4.55,4.73-3.37,6.92s4.6,2.64,7.64,1a7.22,7.22,0,0,0,3.58-4.07h0l7.79-26.38,25.65,7.58L698,437.24c-1.38-1.79-4.52-2.07-7.33-.55-3,1.63-4.55,4.73-3.37,6.93s4.59,2.64,7.63,1a7.2,7.2,0,0,0,3.58-4.07h0l7.79-26.38,2.12-7.19Z"/><path class="cls-23" d="M601.52,25.64l3.8,9.36,12.42,30.57c-3-.72-6.5,1.62-8.2,5.58-1.83,4.28-.82,8.81,2.27,10.14s7.06-1.08,8.9-5.36a9.72,9.72,0,0,0,.35-7.3h0l-14-34.36L636,22.54,648.4,53.1c-3-.72-6.5,1.63-8.2,5.59-1.83,4.28-.82,8.81,2.27,10.14s7.06-1.08,8.89-5.36a9.71,9.71,0,0,0,.36-7.3h0l-14-34.36,28.86-11.73L679,40.65c-3-.72-6.5,1.63-8.2,5.58C669,50.52,670,55,673.12,56.37s7.07-1.08,8.9-5.36a9.71,9.71,0,0,0,.36-7.29h0l-14-34.36L664.61,0Z"/><path class="cls-24" d="M421.84,487l-2,9.06-6.42,29.61c-1.87-2.08-5.77-2.14-9.11,0-3.6,2.29-5.19,6.26-3.53,8.86s5.92,2.84,9.52.55a8.93,8.93,0,0,0,4-5.35h0l7.22-33.28,28,6.07-6.42,29.61c-1.87-2.08-5.77-2.13-9.11,0-3.61,2.3-5.19,6.26-3.53,8.86s5.92,2.84,9.52.55a8.92,8.92,0,0,0,4.05-5.35h0l7.22-33.28,28,6.07-6.42,29.61c-1.87-2.08-5.77-2.13-9.11,0-3.61,2.29-5.19,6.26-3.53,8.86s5.92,2.84,9.52.55a8.92,8.92,0,0,0,4-5.34h0L481,509.34l2-9.06Z"/><line class="cls-25" x1="25.31" y1="316.13" x2="36.5" y2="502.52"/></g></g></svg>